<svg width="1080" height="1080" viewBox="0 0 1080 1080" fill="none" xmlns="http://www.w3.org/2000/svg">
<g filter="url(#filter0_d_0_1)">
<path d="M533.955 669.267L703.827 660.485L433.987 873.307L533.955 669.267Z" fill="#DAB88B" stroke="#886B64" stroke-width="4"/>
<path d="M560.061 480.714L376.412 487.045L685.819 208.011L560.061 480.714Z" fill="#DAB88B" stroke="#886B64" stroke-width="4"/>
<g filter="url(#filter1_d_0_1)">
<path d="M105.767 504H188.267L191.417 519.3H156.467V606H136.817V519.3H105.767V504ZM263.122 533.25L267.022 548.85C263.722 548.85 259.872 549.8 255.472 551.7C251.172 553.6 246.922 556.4 242.722 560.1V606H223.222V533.25H233.422L239.872 543.9C242.872 541.3 246.522 538.9 250.822 536.7C255.122 534.4 259.222 533.25 263.122 533.25ZM332.332 607.8C320.832 607.8 311.832 604.35 305.332 597.45C298.932 590.45 295.732 581.1 295.732 569.4C295.732 557.8 299.082 548.55 305.782 541.65C312.582 534.75 321.832 531.3 333.532 531.3C345.632 531.3 354.982 534.9 361.582 542.1C368.282 549.2 371.632 558.55 371.632 570.15C371.632 581.75 368.032 590.95 360.832 597.75C353.632 604.45 344.132 607.8 332.332 607.8ZM351.532 570.15C351.532 563.25 349.982 557.85 346.882 553.95C343.882 549.95 339.582 547.95 333.982 547.95C328.282 547.95 323.832 549.7 320.632 553.2C317.432 556.7 315.832 562.05 315.832 569.25C315.832 576.45 317.182 581.9 319.882 585.6C322.682 589.3 326.932 591.15 332.632 591.15C338.232 591.15 342.782 589.5 346.282 586.2C349.782 582.8 351.532 577.45 351.532 570.15ZM425.008 541.05C428.308 537.75 432.408 535.15 437.308 533.25C442.308 531.35 446.758 530.4 450.658 530.4C460.558 530.4 467.558 533.3 471.658 539.1C475.858 544.9 477.958 552 477.958 560.4V606H458.458V561.3C458.458 556.7 457.358 553.2 455.158 550.8C452.958 548.3 449.758 547.05 445.558 547.05C442.758 547.05 439.808 547.8 436.708 549.3C433.708 550.7 430.958 552.35 428.458 554.25V606H408.958V533.25H419.158L425.008 541.05ZM520.87 583.5C523.97 585.1 527.92 586.7 532.72 588.3C537.52 589.9 542.07 590.7 546.37 590.7C552.47 590.7 557.02 589.75 560.02 587.85C563.12 585.95 564.67 583.2 564.67 579.6C564.67 576.2 562.62 573.2 558.52 570.6C554.52 567.9 550.07 565.3 545.17 562.8C537.97 559.1 531.07 554.8 524.47 549.9C517.97 544.9 514.72 537.9 514.72 528.9C514.72 521.2 517.77 514.75 523.87 509.55C529.97 504.25 538.62 501.6 549.82 501.6C554.92 501.6 560.02 502.4 565.12 504C570.22 505.6 574.72 507.35 578.62 509.25L572.17 524.85C569.07 523.35 565.72 521.95 562.12 520.65C558.52 519.25 554.52 518.55 550.12 518.55C545.82 518.55 542.17 519.4 539.17 521.1C536.27 522.8 534.82 525.4 534.82 528.9C534.82 532.6 536.57 535.7 540.07 538.2C543.67 540.6 547.97 543.05 552.97 545.55L554.02 546.15C561.22 549.85 568.12 554.25 574.72 559.35C581.42 564.35 584.77 571.2 584.77 579.9C584.77 588 581.47 594.7 574.87 600C568.37 605.3 558.97 607.95 546.67 607.95C542.37 607.95 536.82 607 530.02 605.1C523.32 603.2 518.82 601.25 516.52 599.25L520.87 583.5ZM642.634 538.05C645.834 535.55 649.484 533.65 653.584 532.35C657.784 531.05 661.534 530.4 664.834 530.4C674.734 530.4 681.734 533.3 685.834 539.1C690.034 544.9 692.134 552 692.134 560.4V606H672.634V561.3C672.634 556.7 671.534 553.2 669.334 550.8C667.134 548.3 663.884 547.05 659.584 547.05C656.784 547.05 653.884 547.8 650.884 549.3C647.884 550.7 645.134 552.35 642.634 554.25V606H623.284V501.75L642.634 500.1V538.05ZM746.278 584.25C746.278 586.35 747.128 588.25 748.828 589.95C750.528 591.55 752.778 592.35 755.578 592.35C758.278 592.35 760.978 591.75 763.678 590.55C766.478 589.35 769.128 587.55 771.628 585.15V574.05H756.928C753.528 574.05 750.878 575.1 748.978 577.2C747.178 579.3 746.278 581.65 746.278 584.25ZM755.878 607.8C746.978 607.8 740.378 605.65 736.078 601.35C731.778 596.95 729.628 591.25 729.628 584.25C729.628 576.75 732.178 571 737.278 567C742.378 563 749.028 561 757.228 561H771.478C771.378 557.3 770.278 554.45 768.178 552.45C766.178 550.35 763.378 549.3 759.778 549.3C756.378 549.3 752.678 549.8 748.678 550.8C744.678 551.7 741.328 552.8 738.628 554.1L733.378 537.9C736.178 536 740.428 534.45 746.128 533.25C751.928 531.95 756.378 531.3 759.478 531.3C768.178 531.3 775.628 533.85 781.828 538.95C788.028 543.95 791.128 550.35 791.128 558.15V606H781.078L776.278 599.85C773.578 601.95 770.378 603.8 766.678 605.4C763.078 607 759.478 607.8 755.878 607.8ZM870.721 533.25L874.621 548.85C871.321 548.85 867.471 549.8 863.071 551.7C858.771 553.6 854.521 556.4 850.321 560.1V606H830.821V533.25H841.021L847.471 543.9C850.471 541.3 854.121 538.9 858.421 536.7C862.721 534.4 866.821 533.25 870.721 533.25ZM926.731 500.1V559.8L957.931 531.15L968.881 544.95L948.481 562.8L975.181 606H952.831L934.531 575.25L926.731 582.15V606H907.381V501.75L926.731 500.1Z" fill="#DAB88B"/>
<path d="M105.767 504V500H101.767V504H105.767ZM188.267 504L192.185 503.193L191.528 500H188.267V504ZM191.417 519.3V523.3H196.325L195.335 518.493L191.417 519.3ZM156.467 519.3V515.3H152.467V519.3H156.467ZM156.467 606V610H160.467V606H156.467ZM136.817 606H132.817V610H136.817V606ZM136.817 519.3H140.817V515.3H136.817V519.3ZM105.767 519.3H101.767V523.3H105.767V519.3ZM105.767 508H188.267V500H105.767V508ZM184.349 504.807L187.499 520.107L195.335 518.493L192.185 503.193L184.349 504.807ZM191.417 515.3H156.467V523.3H191.417V515.3ZM152.467 519.3V606H160.467V519.3H152.467ZM156.467 602H136.817V610H156.467V602ZM140.817 606V519.3H132.817V606H140.817ZM136.817 515.3H105.767V523.3H136.817V515.3ZM109.767 519.3V504H101.767V519.3H109.767ZM263.122 533.25L267.002 532.28L266.245 529.25H263.122V533.25ZM267.022 548.85V552.85H272.145L270.902 547.88L267.022 548.85ZM255.472 551.7L253.886 548.028L253.871 548.034L253.855 548.041L255.472 551.7ZM242.722 560.1L240.078 557.099L238.722 558.293V560.1H242.722ZM242.722 606V610H246.722V606H242.722ZM223.222 606H219.222V610H223.222V606ZM223.222 533.25V529.25H219.222V533.25H223.222ZM233.422 533.25L236.843 531.178L235.676 529.25H233.422V533.25ZM239.872 543.9L236.45 545.972L238.907 550.029L242.492 546.923L239.872 543.9ZM250.822 536.7L252.644 540.261L252.676 540.244L252.708 540.227L250.822 536.7ZM259.241 534.22L263.141 549.82L270.902 547.88L267.002 532.28L259.241 534.22ZM267.022 544.85C262.988 544.85 258.579 546.001 253.886 548.028L257.058 555.372C261.165 553.599 264.456 552.85 267.022 552.85V544.85ZM253.855 548.041C249.118 550.135 244.528 553.178 240.078 557.099L245.366 563.101C249.316 559.622 253.226 557.065 257.089 555.359L253.855 548.041ZM238.722 560.1V606H246.722V560.1H238.722ZM242.722 602H223.222V610H242.722V602ZM227.222 606V533.25H219.222V606H227.222ZM223.222 537.25H233.422V529.25H223.222V537.25ZM230 535.322L236.45 545.972L243.293 541.828L236.843 531.178L230 535.322ZM242.492 546.923C245.203 544.573 248.571 542.345 252.644 540.261L249 533.139C244.473 535.455 240.541 538.027 237.252 540.877L242.492 546.923ZM252.708 540.227C256.571 538.161 260.025 537.25 263.122 537.25V529.25C258.419 529.25 253.673 530.639 248.935 533.173L252.708 540.227ZM305.332 597.45L302.38 600.149L302.4 600.171L302.42 600.193L305.332 597.45ZM305.782 541.65L302.933 538.842L302.922 538.853L302.912 538.863L305.782 541.65ZM361.582 542.1L358.633 544.803L358.653 544.824L358.672 544.845L361.582 542.1ZM360.832 597.75L363.557 600.678L363.567 600.668L363.578 600.658L360.832 597.75ZM346.882 553.95L343.682 556.35L343.715 556.395L343.75 556.439L346.882 553.95ZM320.632 553.2L317.68 550.501L317.68 550.501L320.632 553.2ZM319.882 585.6L316.65 587.958L316.671 587.986L316.692 588.014L319.882 585.6ZM346.282 586.2L349.026 589.11L349.047 589.09L349.069 589.069L346.282 586.2ZM332.332 603.8C321.681 603.8 313.83 600.638 308.243 594.707L302.42 600.193C309.833 608.062 319.982 611.8 332.332 611.8V603.8ZM308.284 594.751C302.706 588.651 299.732 580.345 299.732 569.4H291.732C291.732 581.855 295.157 592.249 302.38 600.149L308.284 594.751ZM299.732 569.4C299.732 558.612 302.821 550.441 308.651 544.437L302.912 538.863C295.342 546.659 291.732 556.988 291.732 569.4H299.732ZM308.631 544.458C314.527 538.475 322.664 535.3 333.532 535.3V527.3C320.999 527.3 310.637 531.025 302.933 538.842L308.631 544.458ZM333.532 535.3C344.798 535.3 352.965 538.62 358.633 544.803L364.53 539.397C356.998 531.18 346.465 527.3 333.532 527.3V535.3ZM358.672 544.845C364.543 551.066 367.632 559.366 367.632 570.15H375.632C375.632 557.734 372.02 547.334 364.491 539.355L358.672 544.845ZM367.632 570.15C367.632 580.855 364.347 588.928 358.085 594.842L363.578 600.658C371.716 592.972 375.632 582.645 375.632 570.15H367.632ZM358.107 594.822C351.79 600.7 343.334 603.8 332.332 603.8V611.8C344.929 611.8 355.473 608.2 363.557 600.678L358.107 594.822ZM355.532 570.15C355.532 562.689 353.857 556.297 350.013 551.461L343.75 556.439C346.106 559.403 347.532 563.811 347.532 570.15H355.532ZM350.082 551.55C346.228 546.412 340.667 543.95 333.982 543.95V551.95C338.496 551.95 341.535 553.488 343.682 556.35L350.082 551.55ZM333.982 543.95C327.405 543.95 321.789 546.006 317.68 550.501L323.584 555.899C325.874 553.394 329.159 551.95 333.982 551.95V543.95ZM317.68 550.501C313.53 555.04 311.832 561.553 311.832 569.25H319.832C319.832 562.547 321.334 558.36 323.584 555.899L317.68 550.501ZM311.832 569.25C311.832 576.847 313.238 583.282 316.65 587.958L323.113 583.242C321.125 580.518 319.832 576.053 319.832 569.25H311.832ZM316.692 588.014C320.422 592.942 325.997 595.15 332.632 595.15V587.15C327.866 587.15 324.942 585.658 323.071 583.186L316.692 588.014ZM332.632 595.15C339.073 595.15 344.663 593.224 349.026 589.11L343.538 583.29C340.901 585.776 337.391 587.15 332.632 587.15V595.15ZM349.069 589.069C353.657 584.612 355.532 577.998 355.532 570.15H347.532C347.532 576.902 345.906 580.988 343.494 583.331L349.069 589.069ZM425.008 541.05L421.808 543.45L424.575 547.14L427.837 543.878L425.008 541.05ZM437.308 533.25L435.887 529.511L435.875 529.516L435.862 529.521L437.308 533.25ZM471.658 539.1L468.392 541.409L468.405 541.428L468.418 541.446L471.658 539.1ZM477.958 606V610H481.958V606H477.958ZM458.458 606H454.458V610H458.458V606ZM455.158 550.8L452.155 553.443L452.182 553.473L452.21 553.503L455.158 550.8ZM436.708 549.3L438.4 552.925L438.425 552.913L438.45 552.901L436.708 549.3ZM428.458 554.25L426.038 551.065L424.458 552.266V554.25H428.458ZM428.458 606V610H432.458V606H428.458ZM408.958 606H404.958V610H408.958V606ZM408.958 533.25V529.25H404.958V533.25H408.958ZM419.158 533.25L422.358 530.85L421.158 529.25H419.158V533.25ZM427.837 543.878C430.697 541.018 434.307 538.704 438.754 536.979L435.862 529.521C430.509 531.596 425.92 534.482 422.18 538.222L427.837 543.878ZM438.729 536.989C443.432 535.202 447.387 534.4 450.658 534.4V526.4C446.129 526.4 441.184 527.498 435.887 529.511L438.729 536.989ZM450.658 534.4C459.811 534.4 465.312 537.051 468.392 541.409L474.925 536.791C469.805 529.549 461.305 526.4 450.658 526.4V534.4ZM468.418 541.446C472.043 546.451 473.958 552.692 473.958 560.4H481.958C481.958 551.308 479.674 543.349 474.898 536.754L468.418 541.446ZM473.958 560.4V606H481.958V560.4H473.958ZM477.958 602H458.458V610H477.958V602ZM462.458 606V561.3H454.458V606H462.458ZM462.458 561.3C462.458 556.112 461.218 551.491 458.107 548.097L452.21 553.503C453.498 554.909 454.458 557.288 454.458 561.3H462.458ZM458.161 548.157C455.012 544.579 450.585 543.05 445.558 543.05V551.05C448.932 551.05 450.905 552.021 452.155 553.443L458.161 548.157ZM445.558 543.05C442.032 543.05 438.487 543.996 434.966 545.699L438.45 552.901C441.13 551.604 443.484 551.05 445.558 551.05V543.05ZM435.017 545.675C431.773 547.189 428.776 548.984 426.038 551.065L430.879 557.435C433.14 555.716 435.644 554.211 438.4 552.925L435.017 545.675ZM424.458 554.25V606H432.458V554.25H424.458ZM428.458 602H408.958V610H428.458V602ZM412.958 606V533.25H404.958V606H412.958ZM408.958 537.25H419.158V529.25H408.958V537.25ZM415.958 535.65L421.808 543.45L428.208 538.65L422.358 530.85L415.958 535.65ZM520.87 583.5L522.704 579.946L518.326 577.686L517.014 582.435L520.87 583.5ZM532.72 588.3L533.985 584.505L533.985 584.505L532.72 588.3ZM560.02 587.85L557.93 584.44L557.905 584.455L557.88 584.471L560.02 587.85ZM558.52 570.6L556.282 573.915L556.329 573.947L556.378 573.978L558.52 570.6ZM545.17 562.8L543.342 566.358L543.352 566.363L545.17 562.8ZM524.47 549.9L522.031 553.07L522.058 553.091L522.086 553.112L524.47 549.9ZM523.87 509.55L526.465 512.594L526.479 512.582L526.493 512.569L523.87 509.55ZM565.12 504L563.923 507.817L563.923 507.817L565.12 504ZM578.62 509.25L582.316 510.778L583.754 507.302L580.372 505.654L578.62 509.25ZM572.17 524.85L570.428 528.451L574.246 530.298L575.866 526.378L572.17 524.85ZM562.12 520.65L560.67 524.378L560.716 524.396L560.761 524.412L562.12 520.65ZM539.17 521.1L537.198 517.62L537.172 517.634L537.147 517.649L539.17 521.1ZM540.07 538.2L537.745 541.455L537.797 541.492L537.851 541.528L540.07 538.2ZM552.97 545.55L554.954 542.077L554.858 542.022L554.759 541.972L552.97 545.55ZM554.02 546.15L552.035 549.623L552.113 549.667L552.192 549.708L554.02 546.15ZM574.72 559.35L572.274 562.515L572.301 562.536L572.328 562.556L574.72 559.35ZM574.87 600L572.365 596.881L572.354 596.89L572.342 596.9L574.87 600ZM530.02 605.1L528.929 608.948L528.936 608.95L528.944 608.952L530.02 605.1ZM516.52 599.25L512.664 598.185L511.993 600.615L513.895 602.268L516.52 599.25ZM519.035 587.054C522.38 588.781 526.538 590.456 531.455 592.095L533.985 584.505C529.302 582.944 525.56 581.419 522.704 579.946L519.035 587.054ZM531.455 592.095C536.593 593.807 541.572 594.7 546.37 594.7V586.7C542.568 586.7 538.447 585.993 533.985 584.505L531.455 592.095ZM546.37 594.7C552.748 594.7 558.209 593.732 562.16 591.229L557.88 584.471C555.831 585.768 552.192 586.7 546.37 586.7V594.7ZM562.11 591.26C566.382 588.642 568.67 584.609 568.67 579.6H560.67C560.67 581.791 559.858 583.258 557.93 584.44L562.11 591.26ZM568.67 579.6C568.67 574.295 565.379 570.213 560.662 567.222L556.378 573.978C559.86 576.187 560.67 578.105 560.67 579.6H568.67ZM560.758 567.285C556.606 564.482 552.013 561.801 546.988 559.237L543.352 566.363C548.127 568.799 552.434 571.318 556.282 573.915L560.758 567.285ZM546.998 559.242C539.996 555.644 533.281 551.46 526.854 546.688L522.086 553.112C528.858 558.14 535.944 562.556 543.342 566.358L546.998 559.242ZM526.909 546.73C521.498 542.568 518.72 536.797 518.72 528.9H510.72C510.72 539.003 514.441 547.232 522.031 553.07L526.909 546.73ZM518.72 528.9C518.72 522.425 521.215 517.07 526.465 512.594L521.275 506.506C514.325 512.43 510.72 519.975 510.72 528.9H518.72ZM526.493 512.569C531.627 508.109 539.213 505.6 549.82 505.6V497.6C538.027 497.6 528.313 500.391 521.246 506.531L526.493 512.569ZM549.82 505.6C554.495 505.6 559.191 506.332 563.923 507.817L566.317 500.183C560.849 498.468 555.345 497.6 549.82 497.6V505.6ZM563.923 507.817C568.874 509.37 573.183 511.05 576.868 512.846L580.372 505.654C576.257 503.65 571.566 501.83 566.317 500.183L563.923 507.817ZM574.923 507.722L568.473 523.322L575.866 526.378L582.316 510.778L574.923 507.722ZM573.912 521.249C570.674 519.683 567.195 518.23 563.478 516.888L560.761 524.412C564.245 525.67 567.466 527.017 570.428 528.451L573.912 521.249ZM563.57 516.922C559.448 515.319 554.948 514.55 550.12 514.55V522.55C554.092 522.55 557.592 523.181 560.67 524.378L563.57 516.922ZM550.12 514.55C545.297 514.55 540.931 515.505 537.198 517.62L541.142 524.58C543.409 523.295 546.343 522.55 550.12 522.55V514.55ZM537.147 517.649C532.962 520.103 530.82 524.052 530.82 528.9H538.82C538.82 526.748 539.578 525.497 541.193 524.551L537.147 517.649ZM530.82 528.9C530.82 534.115 533.389 538.344 537.745 541.455L542.395 534.945C539.75 533.056 538.82 531.085 538.82 528.9H530.82ZM537.851 541.528C541.622 544.042 546.073 546.574 551.181 549.128L554.759 541.972C549.867 539.526 545.718 537.158 542.289 534.872L537.851 541.528ZM550.985 549.023L552.035 549.623L556.004 542.677L554.954 542.077L550.985 549.023ZM552.192 549.708C559.168 553.293 565.862 557.56 572.274 562.515L577.166 556.185C570.378 550.94 563.272 546.407 555.848 542.592L552.192 549.708ZM572.328 562.556C577.969 566.765 580.77 572.402 580.77 579.9H588.77C588.77 569.998 584.871 561.935 577.112 556.144L572.328 562.556ZM580.77 579.9C580.77 586.726 578.069 592.301 572.365 596.881L577.374 603.119C584.871 597.099 588.77 589.274 588.77 579.9H580.77ZM572.342 596.9C566.823 601.4 558.465 603.95 546.67 603.95V611.95C559.475 611.95 569.917 609.2 577.398 603.1L572.342 596.9ZM546.67 603.95C542.891 603.95 537.739 603.104 531.096 601.248L528.944 608.952C535.9 610.896 541.849 611.95 546.67 611.95V603.95ZM531.111 601.252C524.43 599.357 520.712 597.594 519.145 596.232L513.895 602.268C516.928 604.906 522.209 607.043 528.929 608.948L531.111 601.252ZM520.376 600.315L524.726 584.565L517.014 582.435L512.664 598.185L520.376 600.315ZM642.634 538.05H638.634V546.251L645.096 541.202L642.634 538.05ZM653.584 532.35L652.401 528.529L652.388 528.533L652.375 528.537L653.584 532.35ZM685.834 539.1L682.567 541.409L682.58 541.428L682.594 541.446L685.834 539.1ZM692.134 606V610H696.134V606H692.134ZM672.634 606H668.634V610H672.634V606ZM669.334 550.8L666.331 553.443L666.358 553.473L666.385 553.503L669.334 550.8ZM650.884 549.3L652.575 552.925L652.624 552.902L652.672 552.878L650.884 549.3ZM642.634 554.25L640.213 551.065L638.634 552.266V554.25H642.634ZM642.634 606V610H646.634V606H642.634ZM623.284 606H619.284V610H623.284V606ZM623.284 501.75L622.944 497.764L619.284 498.077V501.75H623.284ZM642.634 500.1H646.634V495.744L642.294 496.114L642.634 500.1ZM645.096 541.202C647.899 539.012 651.119 537.328 654.793 536.163L652.375 528.537C647.848 529.972 643.768 532.088 640.171 534.898L645.096 541.202ZM654.766 536.171C658.702 534.953 662.042 534.4 664.834 534.4V526.4C661.025 526.4 656.865 527.147 652.401 528.529L654.766 536.171ZM664.834 534.4C673.986 534.4 679.487 537.051 682.567 541.409L689.1 536.791C683.98 529.549 675.481 526.4 664.834 526.4V534.4ZM682.594 541.446C686.218 546.451 688.134 552.692 688.134 560.4H696.134C696.134 551.308 693.849 543.349 689.073 536.754L682.594 541.446ZM688.134 560.4V606H696.134V560.4H688.134ZM692.134 602H672.634V610H692.134V602ZM676.634 606V561.3H668.634V606H676.634ZM676.634 561.3C676.634 556.112 675.393 551.491 672.282 548.097L666.385 553.503C667.674 554.909 668.634 557.288 668.634 561.3H676.634ZM672.336 548.157C669.169 544.558 664.676 543.05 659.584 543.05V551.05C663.091 551.05 665.098 552.042 666.331 553.443L672.336 548.157ZM659.584 543.05C656.051 543.05 652.541 543.999 649.095 545.722L652.672 552.878C655.226 551.601 657.516 551.05 659.584 551.05V543.05ZM649.192 545.675C645.948 547.189 642.952 548.984 640.213 551.065L645.054 557.435C647.315 555.716 649.819 554.211 652.575 552.925L649.192 545.675ZM638.634 554.25V606H646.634V554.25H638.634ZM642.634 602H623.284V610H642.634V602ZM627.284 606V501.75H619.284V606H627.284ZM623.623 505.736L642.973 504.086L642.294 496.114L622.944 497.764L623.623 505.736ZM638.634 500.1V538.05H646.634V500.1H638.634ZM748.828 589.95L745.999 592.778L746.042 592.821L746.086 592.863L748.828 589.95ZM763.678 590.55L762.102 586.873L762.078 586.884L762.053 586.895L763.678 590.55ZM771.628 585.15L774.398 588.036L775.628 586.855V585.15H771.628ZM771.628 574.05H775.628V570.05H771.628V574.05ZM748.978 577.2L746.012 574.516L745.976 574.556L745.941 574.597L748.978 577.2ZM736.078 601.35L733.217 604.146L733.233 604.162L733.249 604.178L736.078 601.35ZM737.278 567L734.809 563.853L734.809 563.853L737.278 567ZM771.478 561V565H775.587L775.476 560.892L771.478 561ZM768.178 552.45L765.281 555.209L765.348 555.279L765.419 555.347L768.178 552.45ZM748.678 550.8L749.556 554.702L749.602 554.692L749.648 554.681L748.678 550.8ZM738.628 554.1L734.823 555.333L736.235 559.692L740.363 557.704L738.628 554.1ZM733.378 537.9L731.132 534.59L728.647 536.276L729.573 539.133L733.378 537.9ZM746.128 533.25L746.952 537.164L746.977 537.159L747.003 537.153L746.128 533.25ZM781.828 538.95L779.287 542.039L779.302 542.051L779.317 542.064L781.828 538.95ZM791.128 606V610H795.128V606H791.128ZM781.078 606L777.924 608.461L779.126 610H781.078V606ZM776.278 599.85L779.431 597.389L776.974 594.241L773.822 596.693L776.278 599.85ZM766.678 605.4L765.09 601.729L765.072 601.737L765.053 601.745L766.678 605.4ZM742.278 584.25C742.278 587.567 743.667 590.446 745.999 592.778L751.656 587.122C750.588 586.054 750.278 585.133 750.278 584.25H742.278ZM746.086 592.863C748.672 595.296 751.974 596.35 755.578 596.35V588.35C753.581 588.35 752.384 587.804 751.569 587.037L746.086 592.863ZM755.578 596.35C758.888 596.35 762.14 595.611 765.302 594.205L762.053 586.895C759.816 587.889 757.667 588.35 755.578 588.35V596.35ZM765.253 594.227C768.552 592.813 771.598 590.724 774.398 588.036L768.858 582.264C766.658 584.376 764.403 585.887 762.102 586.873L765.253 594.227ZM775.628 585.15V574.05H767.628V585.15H775.628ZM771.628 570.05H756.928V578.05H771.628V570.05ZM756.928 570.05C752.644 570.05 748.821 571.411 746.012 574.516L751.944 579.884C752.935 578.789 754.411 578.05 756.928 578.05V570.05ZM745.941 574.597C743.562 577.372 742.278 580.631 742.278 584.25H750.278C750.278 582.669 750.793 581.228 752.015 579.803L745.941 574.597ZM755.878 603.8C747.548 603.8 742.169 601.784 738.906 598.522L733.249 604.178C738.587 609.516 746.408 611.8 755.878 611.8V603.8ZM738.938 598.554C735.471 595.006 733.628 590.361 733.628 584.25H725.628C725.628 592.139 728.084 598.894 733.217 604.146L738.938 598.554ZM733.628 584.25C733.628 577.761 735.772 573.264 739.746 570.147L734.809 563.853C728.583 568.736 725.628 575.739 725.628 584.25H733.628ZM739.746 570.147C743.973 566.832 749.682 565 757.228 565V557C748.374 557 740.782 559.168 734.809 563.853L739.746 570.147ZM757.228 565H771.478V557H757.228V565ZM775.476 560.892C775.356 556.441 773.998 552.47 770.936 549.553L765.419 555.347C766.557 556.43 767.399 558.159 767.479 561.108L775.476 560.892ZM771.074 549.691C768.145 546.615 764.191 545.3 759.778 545.3V553.3C762.565 553.3 764.211 554.085 765.281 555.209L771.074 549.691ZM759.778 545.3C755.99 545.3 751.96 545.856 747.708 546.919L749.648 554.681C753.395 553.744 756.765 553.3 759.778 553.3V545.3ZM747.8 546.898C743.604 547.842 739.945 549.026 736.892 550.496L740.363 557.704C742.71 556.574 745.752 555.558 749.556 554.702L747.8 546.898ZM742.433 552.867L737.183 536.667L729.573 539.133L734.823 555.333L742.433 552.867ZM735.624 541.21C737.79 539.74 741.447 538.323 746.952 537.164L745.304 529.336C739.409 530.577 734.565 532.26 731.132 534.59L735.624 541.21ZM747.003 537.153C752.726 535.87 756.829 535.3 759.478 535.3V527.3C755.926 527.3 751.129 528.03 745.253 529.347L747.003 537.153ZM759.478 535.3C767.334 535.3 773.864 537.579 779.287 542.039L784.369 535.861C777.391 530.121 769.022 527.3 759.478 527.3V535.3ZM779.317 542.064C784.598 546.323 787.128 551.589 787.128 558.15H795.128C795.128 549.111 791.457 541.577 784.339 535.836L779.317 542.064ZM787.128 558.15V606H795.128V558.15H787.128ZM791.128 602H781.078V610H791.128V602ZM784.231 603.539L779.431 597.389L773.124 602.311L777.924 608.461L784.231 603.539ZM773.822 596.693C771.431 598.552 768.534 600.239 765.09 601.729L768.265 609.071C772.222 607.361 775.725 605.348 778.734 603.007L773.822 596.693ZM765.053 601.745C761.916 603.139 758.867 603.8 755.878 603.8V611.8C760.088 611.8 764.24 610.861 768.302 609.055L765.053 601.745ZM870.721 533.25L874.602 532.28L873.845 529.25H870.721V533.25ZM874.621 548.85V552.85H879.745L878.502 547.88L874.621 548.85ZM863.071 551.7L861.486 548.028L861.47 548.034L861.455 548.041L863.071 551.7ZM850.321 560.1L847.677 557.099L846.321 558.293V560.1H850.321ZM850.321 606V610H854.321V606H850.321ZM830.821 606H826.821V610H830.821V606ZM830.821 533.25V529.25H826.821V533.25H830.821ZM841.021 533.25L844.443 531.178L843.275 529.25H841.021V533.25ZM847.471 543.9L844.05 545.972L846.507 550.029L850.091 546.923L847.471 543.9ZM858.421 536.7L860.243 540.261L860.276 540.244L860.308 540.227L858.421 536.7ZM866.841 534.22L870.741 549.82L878.502 547.88L874.602 532.28L866.841 534.22ZM874.621 544.85C870.588 544.85 866.178 546.001 861.486 548.028L864.657 555.372C868.765 553.599 872.055 552.85 874.621 552.85V544.85ZM861.455 548.041C856.717 550.135 852.128 553.178 847.677 557.099L852.966 563.101C856.915 559.622 860.826 557.065 864.688 555.359L861.455 548.041ZM846.321 560.1V606H854.321V560.1H846.321ZM850.321 602H830.821V610H850.321V602ZM834.821 606V533.25H826.821V606H834.821ZM830.821 537.25H841.021V529.25H830.821V537.25ZM837.6 535.322L844.05 545.972L850.893 541.828L844.443 531.178L837.6 535.322ZM850.091 546.923C852.802 544.573 856.171 542.345 860.243 540.261L856.6 533.139C852.072 535.455 848.141 538.027 844.852 540.877L850.091 546.923ZM860.308 540.227C864.17 538.161 867.624 537.25 870.721 537.25V529.25C866.019 529.25 861.273 530.639 856.535 533.173L860.308 540.227ZM926.731 500.1H930.731V495.744L926.391 496.114L926.731 500.1ZM926.731 559.8H922.731V568.904L929.437 562.746L926.731 559.8ZM957.931 531.15L961.065 528.664L958.392 525.296L955.226 528.204L957.931 531.15ZM968.881 544.95L971.515 547.96L974.384 545.45L972.015 542.464L968.881 544.95ZM948.481 562.8L945.847 559.79L943.297 562.021L945.079 564.903L948.481 562.8ZM975.181 606V610H982.356L978.584 603.897L975.181 606ZM952.831 606L949.394 608.046L950.557 610H952.831V606ZM934.531 575.25L937.969 573.204L935.499 569.054L931.881 572.254L934.531 575.25ZM926.731 582.15L924.081 579.154L922.731 580.348V582.15H926.731ZM926.731 606V610H930.731V606H926.731ZM907.381 606H903.381V610H907.381V606ZM907.381 501.75L907.041 497.764L903.381 498.077V501.75H907.381ZM922.731 500.1V559.8H930.731V500.1H922.731ZM929.437 562.746L960.637 534.096L955.226 528.204L924.026 556.854L929.437 562.746ZM954.798 533.636L965.748 547.436L972.015 542.464L961.065 528.664L954.798 533.636ZM966.247 541.94L945.847 559.79L951.115 565.81L971.515 547.96L966.247 541.94ZM945.079 564.903L971.779 608.103L978.584 603.897L951.884 560.697L945.079 564.903ZM975.181 602H952.831V610H975.181V602ZM956.269 603.954L937.969 573.204L931.094 577.296L949.394 608.046L956.269 603.954ZM931.881 572.254L924.081 579.154L929.382 585.146L937.182 578.246L931.881 572.254ZM922.731 582.15V606H930.731V582.15H922.731ZM926.731 602H907.381V610H926.731V602ZM911.381 606V501.75H903.381V606H911.381ZM907.721 505.736L927.071 504.086L926.391 496.114L907.041 497.764L907.721 505.736Z" fill="#886B64"/>
</g>
</g>
<defs>
<filter id="filter0_d_0_1" x="105.767" y="200" width="883.414" height="700" filterUnits="userSpaceOnUse" color-interpolation-filters="sRGB">
<feFlood flood-opacity="0" result="BackgroundImageFix"/>
<feColorMatrix in="SourceAlpha" type="matrix" values="0 0 0 0 0 0 0 0 0 0 0 0 0 0 0 0 0 0 127 0" result="hardAlpha"/>
<feOffset dx="10" dy="15"/>
<feGaussianBlur stdDeviation="2"/>
<feComposite in2="hardAlpha" operator="out"/>
<feColorMatrix type="matrix" values="0 0 0 0 0 0 0 0 0 0 0 0 0 0 0 0 0 0 0.25 0"/>
<feBlend mode="normal" in2="BackgroundImageFix" result="effect1_dropShadow_0_1"/>
<feBlend mode="normal" in="SourceGraphic" in2="effect1_dropShadow_0_1" result="shape"/>
</filter>
<filter id="filter1_d_0_1" x="105.767" y="500.1" width="883.414" height="126.85" filterUnits="userSpaceOnUse" color-interpolation-filters="sRGB">
<feFlood flood-opacity="0" result="BackgroundImageFix"/>
<feColorMatrix in="SourceAlpha" type="matrix" values="0 0 0 0 0 0 0 0 0 0 0 0 0 0 0 0 0 0 127 0" result="hardAlpha"/>
<feOffset dx="10" dy="15"/>
<feGaussianBlur stdDeviation="2"/>
<feComposite in2="hardAlpha" operator="out"/>
<feColorMatrix type="matrix" values="0 0 0 0 0 0 0 0 0 0 0 0 0 0 0 0 0 0 0.25 0"/>
<feBlend mode="normal" in2="BackgroundImageFix" result="effect1_dropShadow_0_1"/>
<feBlend mode="normal" in="SourceGraphic" in2="effect1_dropShadow_0_1" result="shape"/>
</filter>
</defs>
</svg>
