<svg width="1080" height="1080" viewBox="0 0 1080 1080" fill="none" xmlns="http://www.w3.org/2000/svg">
<rect width="1080" height="1080" fill="#F5F5F5"/>
<rect width="1080" height="1080" fill="#282A3A"/>
<path d="M105.12 638V533.52H68.48V519.12H160.56V533.52H124V638H105.12ZM208.362 572.56L207.242 560.4C208.042 558.747 209.722 556.933 212.282 554.96C214.842 552.933 217.856 551.2 221.322 549.76C224.842 548.32 228.416 547.6 232.042 547.6C234.069 547.6 235.803 547.68 237.242 547.84C238.736 548 239.829 548.293 240.522 548.72V566C239.722 565.573 238.496 565.12 236.842 564.64C235.242 564.16 232.629 563.92 229.002 563.92C225.696 563.92 222.709 564.4 220.042 565.36C217.429 566.267 215.136 567.387 213.162 568.72C211.189 570.053 209.589 571.333 208.362 572.56ZM190.922 638V549.04H206.602L207.882 560.4L209.322 567.12V638H190.922ZM312.051 639.28C304.798 639.28 298.638 638 293.571 635.44C288.505 632.88 284.398 629.387 281.251 624.96C278.105 620.533 275.811 615.467 274.371 609.76C272.985 604 272.318 597.947 272.371 591.6C272.531 582.053 274.425 574.027 278.051 567.52C281.678 561.013 286.585 556.107 292.771 552.8C298.958 549.44 305.918 547.76 313.651 547.76C323.358 547.76 331.118 549.973 336.931 554.4C342.798 558.773 347.011 564.587 349.571 571.84C352.185 579.04 353.438 586.853 353.331 595.28C353.171 604.827 351.278 612.88 347.651 619.44C344.078 625.947 339.198 630.88 333.011 634.24C326.878 637.6 319.891 639.28 312.051 639.28ZM312.531 626.24C319.838 626.347 325.331 623.6 329.011 618C332.745 612.347 334.611 604.533 334.611 594.56C334.611 588.373 333.865 582.773 332.371 577.76C330.878 572.693 328.531 568.64 325.331 565.6C322.185 562.56 318.131 561.013 313.171 560.96C305.918 560.8 300.451 563.413 296.771 568.8C293.091 574.187 291.251 581.867 291.251 591.84C291.251 598.027 291.998 603.707 293.491 608.88C294.985 614.053 297.305 618.213 300.451 621.36C303.598 624.507 307.625 626.133 312.531 626.24ZM397.673 638V549.04H414.233L414.313 558.48C416.499 556.987 419.246 555.413 422.553 553.76C425.913 552.107 429.513 550.693 433.353 549.52C437.246 548.347 441.113 547.707 444.953 547.6C454.499 547.333 461.353 549.813 465.513 555.04C469.673 560.213 471.753 569.333 471.753 582.4V638H453.193V583.36C453.193 575.893 452.179 570.533 450.153 567.28C448.179 564.027 443.859 562.587 437.193 562.96C435.326 563.013 433.166 563.36 430.713 564C428.313 564.587 425.833 565.467 423.273 566.64C420.766 567.76 418.366 569.2 416.073 570.96V638H397.673ZM552.13 639.28C546.957 639.28 542.05 638.88 537.41 638.08C532.823 637.333 528.877 636.427 525.57 635.36C522.263 634.293 519.89 633.307 518.45 632.4L522.37 617.12C524.397 618.293 526.93 619.44 529.97 620.56C533.01 621.68 536.343 622.613 539.97 623.36C543.597 624.053 547.277 624.4 551.01 624.4C558.317 624.4 563.89 623.173 567.73 620.72C571.57 618.267 573.49 614.267 573.49 608.72C573.49 604.987 572.53 601.867 570.61 599.36C568.69 596.8 565.81 594.4 561.97 592.16C558.183 589.92 553.437 587.44 547.73 584.72C542.877 582.32 538.157 579.44 533.57 576.08C529.037 572.72 525.303 568.773 522.37 564.24C519.437 559.707 517.97 554.507 517.97 548.64C517.97 542.88 519.09 538.053 521.33 534.16C523.623 530.213 526.69 527.04 530.53 524.64C534.37 522.24 538.637 520.507 543.33 519.44C548.077 518.373 552.93 517.84 557.89 517.84C565.143 517.84 571.143 518.56 575.89 520C580.637 521.387 584.05 522.773 586.13 524.16L582.45 538.96C579.73 537.253 576.53 535.733 572.85 534.4C569.223 533.013 564.237 532.32 557.89 532.32C553.997 532.32 550.397 532.827 547.09 533.84C543.783 534.853 541.117 536.4 539.09 538.48C537.063 540.56 536.05 543.227 536.05 546.48C536.05 550.16 536.797 553.253 538.29 555.76C539.837 558.213 542.317 560.533 545.73 562.72C549.143 564.853 553.623 567.36 559.17 570.24C563.17 572.32 567.117 574.533 571.01 576.88C574.903 579.173 578.423 581.733 581.57 584.56C584.77 587.387 587.303 590.64 589.17 594.32C591.09 597.947 592.05 602.107 592.05 606.8C592.05 614.053 590.343 620.107 586.93 624.96C583.57 629.76 578.877 633.36 572.85 635.76C566.877 638.107 559.97 639.28 552.13 639.28ZM635.399 638V507.92H653.799V544.56L652.839 560.64L651.959 558.56C654.092 556.853 656.812 555.173 660.119 553.52C663.425 551.867 666.999 550.507 670.839 549.44C674.679 548.32 678.492 547.707 682.279 547.6C691.985 547.333 699.025 550 703.399 555.6C707.825 561.2 710.039 570.507 710.039 583.52V638H691.639V583.36C691.639 576.053 690.492 570.773 688.199 567.52C685.959 564.267 681.585 562.8 675.079 563.12C672.252 563.173 668.865 563.84 664.919 565.12C660.972 566.4 657.265 568.347 653.799 570.96V638H635.399ZM779.643 639.28C774.309 639.28 769.563 638.24 765.403 636.16C761.296 634.027 758.043 631.04 755.643 627.2C753.296 623.307 752.123 618.72 752.123 613.44C752.123 607.733 753.643 602.907 756.683 598.96C759.776 594.96 763.909 591.84 769.083 589.6C772.496 588.213 776.203 587.12 780.203 586.32C784.203 585.467 788.203 584.88 792.203 584.56C796.203 584.187 799.909 584 803.323 584L807.163 588.88L803.323 595.36C801.243 595.36 798.736 595.52 795.803 595.84C792.923 596.107 790.069 596.56 787.243 597.2C784.416 597.787 782.016 598.56 780.043 599.52C777.323 600.747 775.056 602.32 773.243 604.24C771.429 606.16 770.523 608.827 770.523 612.24C770.523 616.72 771.749 620.107 774.203 622.4C776.709 624.693 780.416 625.84 785.323 625.84C787.829 625.84 790.363 625.467 792.923 624.72C795.483 623.973 797.696 623.12 799.563 622.16C801.483 621.2 802.736 620.373 803.323 619.68L807.003 623.6L804.363 630.48C802.016 632.613 798.629 634.613 794.203 636.48C789.776 638.347 784.923 639.28 779.643 639.28ZM821.803 638H804.363V624.72H803.323V575.6C803.323 570.373 801.936 566.933 799.163 565.28C796.443 563.573 792.549 562.72 787.483 562.72C784.123 562.72 780.656 563.067 777.083 563.76C773.509 564.4 770.229 565.227 767.243 566.24C764.256 567.2 761.963 568.187 760.363 569.2L756.043 555.92C757.269 555.173 759.616 554.133 763.083 552.8C766.603 551.467 770.683 550.267 775.323 549.2C780.016 548.08 784.656 547.52 789.243 547.52C795.909 547.52 801.669 548.293 806.523 549.84C811.429 551.387 815.189 554.267 817.803 558.48C820.469 562.64 821.803 568.693 821.803 576.64V638ZM886.938 572.56L885.818 560.4C886.618 558.747 888.298 556.933 890.858 554.96C893.418 552.933 896.431 551.2 899.898 549.76C903.418 548.32 906.991 547.6 910.618 547.6C912.644 547.6 914.378 547.68 915.818 547.84C917.311 548 918.404 548.293 919.098 548.72V566C918.298 565.573 917.071 565.12 915.418 564.64C913.818 564.16 911.204 563.92 907.578 563.92C904.271 563.92 901.284 564.4 898.618 565.36C896.004 566.267 893.711 567.387 891.738 568.72C889.764 570.053 888.164 571.333 886.938 572.56ZM869.498 638V549.04H885.178L886.458 560.4L887.898 567.12V638H869.498ZM1032.99 548.88L974.749 609.68L976.349 605.36L976.669 620.72V638H958.749V585.04V508.24H976.669V576.08L976.029 595.6L971.709 592.56L1011.39 548.88H1032.99ZM985.949 594.16L998.429 582.16L1036.83 638H1015.87L985.949 594.16Z" fill="#C69749"/>
<path d="M105.12 638H104.12V639H105.12V638ZM105.12 533.52H106.12V532.52H105.12V533.52ZM68.48 533.52H67.48V534.52H68.48V533.52ZM68.48 519.12V518.12H67.48V519.12H68.48ZM160.56 519.12H161.56V518.12H160.56V519.12ZM160.56 533.52V534.52H161.56V533.52H160.56ZM124 533.52V532.52H123V533.52H124ZM124 638V639H125V638H124ZM106.12 638V533.52H104.12V638H106.12ZM105.12 532.52H68.48V534.52H105.12V532.52ZM69.48 533.52V519.12H67.48V533.52H69.48ZM68.48 520.12H160.56V518.12H68.48V520.12ZM159.56 519.12V533.52H161.56V519.12H159.56ZM160.56 532.52H124V534.52H160.56V532.52ZM123 533.52V638H125V533.52H123ZM124 637H105.12V639H124V637ZM208.362 572.56L207.367 572.652L207.562 574.774L209.07 573.267L208.362 572.56ZM207.242 560.4L206.342 559.964L206.221 560.215L206.247 560.492L207.242 560.4ZM212.282 554.96L212.893 555.752L212.903 555.744L212.282 554.96ZM221.322 549.76L220.944 548.834L220.939 548.836L221.322 549.76ZM237.242 547.84L237.132 548.834L237.136 548.834L237.242 547.84ZM240.522 548.72H241.522V548.161L241.047 547.868L240.522 548.72ZM240.522 566L240.052 566.882L241.522 567.667V566H240.522ZM236.842 564.64L236.555 565.598L236.564 565.6L236.842 564.64ZM220.042 565.36L220.37 566.305L220.381 566.301L220.042 565.36ZM213.162 568.72L212.603 567.891L212.603 567.891L213.162 568.72ZM190.922 638H189.922V639H190.922V638ZM190.922 549.04V548.04H189.922V549.04H190.922ZM206.602 549.04L207.596 548.928L207.496 548.04H206.602V549.04ZM207.882 560.4L206.889 560.512L206.894 560.561L206.905 560.61L207.882 560.4ZM209.322 567.12H210.322V567.014L210.3 566.91L209.322 567.12ZM209.322 638V639H210.322V638H209.322ZM209.358 572.468L208.238 560.308L206.247 560.492L207.367 572.652L209.358 572.468ZM208.143 560.836C208.842 559.391 210.376 557.692 212.893 555.752L211.672 554.168C209.069 556.174 207.243 558.102 206.342 559.964L208.143 560.836ZM212.903 555.744C215.381 553.782 218.312 552.093 221.706 550.683L220.939 548.836C217.4 550.307 214.304 552.084 211.662 554.176L212.903 555.744ZM221.701 550.686C225.107 549.292 228.552 548.6 232.042 548.6V546.6C228.28 546.6 224.578 547.348 220.944 548.834L221.701 550.686ZM232.042 548.6C234.046 548.6 235.74 548.679 237.132 548.834L237.353 546.846C235.865 546.681 234.093 546.6 232.042 546.6V548.6ZM237.136 548.834C238.586 548.99 239.498 549.264 239.998 549.572L241.047 547.868C240.16 547.323 238.886 547.01 237.349 546.846L237.136 548.834ZM239.522 548.72V566H241.522V548.72H239.522ZM240.993 565.118C240.1 564.641 238.793 564.165 237.121 563.68L236.564 565.6C238.199 566.075 239.345 566.505 240.052 566.882L240.993 565.118ZM237.13 563.682C235.38 563.157 232.64 562.92 229.002 562.92V564.92C232.618 564.92 235.105 565.163 236.555 565.598L237.13 563.682ZM229.002 562.92C225.599 562.92 222.496 563.414 219.704 564.419L220.381 566.301C222.923 565.386 225.792 564.92 229.002 564.92V562.92ZM219.715 564.415C217.032 565.346 214.658 566.502 212.603 567.891L213.722 569.549C215.613 568.271 217.826 567.187 220.37 566.305L219.715 564.415ZM212.603 567.891C210.594 569.248 208.94 570.568 207.655 571.853L209.07 573.267C210.238 572.099 211.784 570.858 213.722 569.549L212.603 567.891ZM191.922 638V549.04H189.922V638H191.922ZM190.922 550.04H206.602V548.04H190.922V550.04ZM205.609 549.152L206.889 560.512L208.876 560.288L207.596 548.928L205.609 549.152ZM206.905 560.61L208.345 567.33L210.3 566.91L208.86 560.19L206.905 560.61ZM208.322 567.12V638H210.322V567.12H208.322ZM209.322 637H190.922V639H209.322V637ZM293.571 635.44L293.12 636.333L293.571 635.44ZM281.251 624.96L280.436 625.539L280.436 625.539L281.251 624.96ZM274.371 609.76L273.399 609.994L273.402 610.005L274.371 609.76ZM272.371 591.6L271.371 591.583L271.371 591.592L272.371 591.6ZM292.771 552.8L293.243 553.682L293.249 553.679L292.771 552.8ZM336.931 554.4L336.325 555.196L336.334 555.202L336.931 554.4ZM349.571 571.84L348.628 572.173L348.631 572.181L349.571 571.84ZM353.331 595.28L354.331 595.297L354.331 595.293L353.331 595.28ZM347.651 619.44L346.776 618.956L346.775 618.959L347.651 619.44ZM333.011 634.24L332.534 633.361L332.531 633.363L333.011 634.24ZM312.531 626.24L312.51 627.24L312.517 627.24L312.531 626.24ZM329.011 618L328.177 617.449L328.176 617.451L329.011 618ZM332.371 577.76L331.412 578.043L331.413 578.045L332.371 577.76ZM325.331 565.6L324.636 566.319L324.642 566.325L325.331 565.6ZM313.171 560.96L313.149 561.96L313.16 561.96L313.171 560.96ZM296.771 568.8L295.946 568.236L295.946 568.236L296.771 568.8ZM300.451 621.36L301.158 620.653L301.158 620.653L300.451 621.36ZM312.051 638.28C304.912 638.28 298.916 637.02 294.022 634.547L293.12 636.333C298.36 638.98 304.683 640.28 312.051 640.28V638.28ZM294.022 634.547C289.094 632.057 285.115 628.669 282.066 624.381L280.436 625.539C283.681 630.105 287.915 633.703 293.12 636.333L294.022 634.547ZM282.066 624.381C278.997 620.063 276.753 615.112 275.341 609.515L273.402 610.005C274.869 615.821 277.212 621.004 280.436 625.539L282.066 624.381ZM275.343 609.526C273.977 603.851 273.319 597.879 273.371 591.608L271.371 591.592C271.317 598.014 271.992 604.149 273.399 609.994L275.343 609.526ZM273.371 591.617C273.529 582.19 275.398 574.335 278.925 568.007L277.178 567.033C273.451 573.719 271.533 581.917 271.371 591.583L273.371 591.617ZM278.925 568.007C282.464 561.657 287.236 556.892 293.243 553.682L292.3 551.918C285.933 555.321 280.892 560.37 277.178 567.033L278.925 568.007ZM293.249 553.679C299.275 550.406 306.068 548.76 313.651 548.76V546.76C305.768 546.76 298.641 548.474 292.294 551.921L293.249 553.679ZM313.651 548.76C323.211 548.76 330.736 550.939 336.325 555.196L337.537 553.604C331.5 549.007 323.505 546.76 313.651 546.76V548.76ZM336.334 555.202C342.033 559.45 346.131 565.096 348.628 572.173L350.514 571.507C347.892 564.077 343.563 558.096 337.529 553.598L336.334 555.202ZM348.631 572.181C351.2 579.257 352.437 586.949 352.331 595.267L354.331 595.293C354.439 586.757 353.17 578.823 350.511 571.499L348.631 572.181ZM352.331 595.263C352.173 604.69 350.305 612.573 346.776 618.956L348.526 619.924C352.251 613.187 354.169 604.963 354.331 595.297L352.331 595.263ZM346.775 618.959C343.288 625.307 338.543 630.098 332.534 633.361L333.489 635.119C339.853 631.662 344.867 626.586 348.528 619.921L346.775 618.959ZM332.531 633.363C326.562 636.633 319.744 638.28 312.051 638.28V640.28C320.039 640.28 327.194 638.567 333.492 635.117L332.531 633.363ZM312.517 627.24C320.128 627.351 325.96 624.464 329.847 618.549L328.176 617.451C324.703 622.736 319.548 625.342 312.546 625.24L312.517 627.24ZM329.846 618.551C333.727 612.674 335.611 604.642 335.611 594.56H333.611C333.611 604.425 331.762 612.019 328.177 617.449L329.846 618.551ZM335.611 594.56C335.611 588.294 334.855 582.596 333.33 577.475L331.413 578.045C332.874 582.951 333.611 588.453 333.611 594.56H335.611ZM333.33 577.477C331.797 572.275 329.37 568.058 326.02 564.875L324.642 566.325C327.692 569.222 329.959 573.111 331.412 578.043L333.33 577.477ZM326.026 564.881C322.671 561.639 318.361 560.016 313.182 559.96L313.16 561.96C317.902 562.011 321.698 563.481 324.636 566.319L326.026 564.881ZM313.193 559.96C305.647 559.794 299.84 562.535 295.946 568.236L297.597 569.364C301.062 564.292 306.189 561.806 313.149 561.96L313.193 559.96ZM295.946 568.236C292.107 573.855 290.251 581.765 290.251 591.84H292.251C292.251 581.969 294.076 574.518 297.597 569.364L295.946 568.236ZM290.251 591.84C290.251 598.107 291.008 603.882 292.53 609.157L294.452 608.603C292.988 603.532 292.251 597.946 292.251 591.84H290.251ZM292.53 609.157C294.061 614.459 296.455 618.778 299.744 622.067L301.158 620.653C298.154 617.648 295.908 613.648 294.452 608.603L292.53 609.157ZM299.744 622.067C303.092 625.415 307.374 627.128 312.51 627.24L312.553 625.24C307.875 625.139 304.103 623.598 301.158 620.653L299.744 622.067ZM397.673 638H396.673V639H397.673V638ZM397.673 549.04V548.04H396.673V549.04H397.673ZM414.233 549.04L415.232 549.032L415.224 548.04H414.233V549.04ZM414.313 558.48L413.313 558.488L413.328 560.363L414.876 559.306L414.313 558.48ZM422.553 553.76L422.111 552.863L422.105 552.866L422.553 553.76ZM433.353 549.52L433.064 548.563L433.06 548.564L433.353 549.52ZM444.953 547.6L444.98 548.6L444.98 548.6L444.953 547.6ZM465.513 555.04L464.73 555.663L464.733 555.667L465.513 555.04ZM471.753 638V639H472.753V638H471.753ZM453.193 638H452.193V639H453.193V638ZM450.153 567.28L449.297 567.799L449.304 567.809L450.153 567.28ZM437.193 562.96L437.221 563.96L437.235 563.959L437.248 563.958L437.193 562.96ZM430.713 564L430.95 564.971L430.957 564.97L430.965 564.968L430.713 564ZM423.273 566.64L423.68 567.553L423.689 567.549L423.273 566.64ZM416.073 570.96L415.464 570.167L415.073 570.467V570.96H416.073ZM416.073 638V639H417.073V638H416.073ZM398.673 638V549.04H396.673V638H398.673ZM397.673 550.04H414.233V548.04H397.673V550.04ZM413.233 549.048L413.313 558.488L415.312 558.472L415.232 549.032L413.233 549.048ZM414.876 559.306C417.014 557.846 419.719 556.295 423 554.654L422.105 552.866C418.773 554.532 415.984 556.128 413.749 557.654L414.876 559.306ZM422.994 554.657C426.303 553.029 429.852 551.635 433.645 550.476L433.06 548.564C429.173 549.752 425.522 551.184 422.111 552.863L422.994 554.657ZM433.641 550.477C437.455 549.328 441.234 548.704 444.98 548.6L444.925 546.6C440.991 546.71 437.037 547.365 433.064 548.563L433.641 550.477ZM444.98 548.6C454.355 548.338 460.84 550.776 464.73 555.663L466.295 554.417C461.865 548.851 454.643 546.329 444.925 546.6L444.98 548.6ZM464.733 555.667C468.666 560.557 470.753 569.374 470.753 582.4H472.753C472.753 569.293 470.679 559.87 466.292 554.413L464.733 555.667ZM470.753 582.4V638H472.753V582.4H470.753ZM471.753 637H453.193V639H471.753V637ZM454.193 638V583.36H452.193V638H454.193ZM454.193 583.36C454.193 575.854 453.183 570.254 451.001 566.751L449.304 567.809C451.175 570.813 452.193 575.933 452.193 583.36H454.193ZM451.008 566.761C448.729 563.006 443.886 561.584 437.137 561.962L437.248 563.958C443.832 563.59 447.629 565.048 449.298 567.799L451.008 566.761ZM437.164 561.96C435.2 562.017 432.962 562.38 430.46 563.032L430.965 564.968C433.369 564.34 435.451 564.01 437.221 563.96L437.164 561.96ZM430.475 563.029C428.006 563.632 425.466 564.535 422.856 565.731L423.689 567.549C426.199 566.399 428.619 565.541 430.95 564.971L430.475 563.029ZM422.865 565.727C420.283 566.881 417.816 568.362 415.464 570.167L416.681 571.753C418.916 570.038 421.249 568.639 423.68 567.553L422.865 565.727ZM415.073 570.96V638H417.073V570.96H415.073ZM416.073 637H397.673V639H416.073V637ZM537.41 638.08L537.58 637.094L537.571 637.093L537.41 638.08ZM525.57 635.36L525.263 636.312L525.263 636.312L525.57 635.36ZM518.45 632.4L517.481 632.152L517.3 632.858L517.917 633.246L518.45 632.4ZM522.37 617.12L522.871 616.255L521.729 615.594L521.401 616.872L522.37 617.12ZM539.97 623.36L539.768 624.339L539.775 624.341L539.782 624.342L539.97 623.36ZM567.73 620.72L568.268 621.563L568.268 621.563L567.73 620.72ZM570.61 599.36L569.81 599.96L569.816 599.968L570.61 599.36ZM561.97 592.16L561.461 593.021L561.466 593.024L561.97 592.16ZM547.73 584.72L547.287 585.616L547.293 585.62L547.3 585.623L547.73 584.72ZM533.57 576.08L532.975 576.883L532.979 576.887L533.57 576.08ZM522.37 564.24L521.53 564.783L521.53 564.783L522.37 564.24ZM521.33 534.16L520.465 533.658L520.463 533.661L521.33 534.16ZM530.53 524.64L531.06 525.488L531.06 525.488L530.53 524.64ZM543.33 519.44L543.111 518.464L543.108 518.465L543.33 519.44ZM575.89 520L575.6 520.957L575.61 520.96L575.89 520ZM586.13 524.16L587.1 524.401L587.27 523.718L586.685 523.328L586.13 524.16ZM582.45 538.96L581.919 539.807L583.087 540.541L583.42 539.201L582.45 538.96ZM572.85 534.4L572.493 535.334L572.501 535.337L572.509 535.34L572.85 534.4ZM547.09 533.84L547.383 534.796L547.383 534.796L547.09 533.84ZM539.09 538.48L538.374 537.782L538.374 537.782L539.09 538.48ZM538.29 555.76L537.431 556.272L537.437 556.283L537.444 556.293L538.29 555.76ZM545.73 562.72L545.191 563.562L545.2 563.568L545.73 562.72ZM559.17 570.24L559.631 569.353L559.631 569.352L559.17 570.24ZM571.01 576.88L570.494 577.736L570.502 577.742L571.01 576.88ZM581.57 584.56L580.902 585.304L580.908 585.309L581.57 584.56ZM589.17 594.32L588.278 594.772L588.282 594.78L588.286 594.788L589.17 594.32ZM586.93 624.96L586.112 624.385L586.111 624.387L586.93 624.96ZM572.85 635.76L573.216 636.691L573.22 636.689L572.85 635.76ZM552.13 638.28C547.008 638.28 542.159 637.884 537.58 637.095L537.24 639.065C541.941 639.876 546.905 640.28 552.13 640.28V638.28ZM537.571 637.093C533.018 636.352 529.123 635.455 525.877 634.408L525.263 636.312C528.63 637.398 532.628 638.315 537.249 639.067L537.571 637.093ZM525.877 634.408C522.585 633.346 520.312 632.39 518.983 631.554L517.917 633.246C519.468 634.223 521.941 635.24 525.263 636.312L525.877 634.408ZM519.419 632.648L523.339 617.368L521.401 616.872L517.481 632.152L519.419 632.648ZM521.869 617.985C523.96 619.196 526.549 620.365 529.624 621.498L530.316 619.622C527.311 618.515 524.833 617.391 522.871 616.255L521.869 617.985ZM529.624 621.498C532.717 622.638 536.099 623.584 539.768 624.339L540.172 622.381C536.587 621.643 533.303 620.722 530.316 619.622L529.624 621.498ZM539.782 624.342C543.471 625.048 547.214 625.4 551.01 625.4V623.4C547.339 623.4 543.722 623.059 540.158 622.378L539.782 624.342ZM551.01 625.4C558.403 625.4 564.198 624.163 568.268 621.563L567.192 619.877C563.582 622.183 558.231 623.4 551.01 623.4V625.4ZM568.268 621.563C572.461 618.884 574.49 614.522 574.49 608.72H572.49C572.49 614.011 570.679 617.649 567.192 619.877L568.268 621.563ZM574.49 608.72C574.49 604.808 573.481 601.463 571.404 598.752L569.816 599.968C571.579 602.27 572.49 605.165 572.49 608.72H574.49ZM571.41 598.76C569.385 596.06 566.387 593.579 562.474 591.296L561.466 593.024C565.233 595.221 567.995 597.54 569.81 599.96L571.41 598.76ZM562.479 591.299C558.658 589.039 553.883 586.545 548.16 583.817L547.3 585.623C552.99 588.335 557.708 590.801 561.461 593.021L562.479 591.299ZM548.173 583.824C543.374 581.45 538.703 578.601 534.161 575.273L532.979 576.887C537.61 580.279 542.379 583.19 547.287 585.616L548.173 583.824ZM534.165 575.277C529.724 571.985 526.075 568.125 523.21 563.697L521.53 564.783C524.532 569.422 528.349 573.455 532.975 576.883L534.165 575.277ZM523.21 563.697C520.39 559.339 518.97 554.331 518.97 548.64H516.97C516.97 554.682 518.483 560.074 521.53 564.783L523.21 563.697ZM518.97 548.64C518.97 543.007 520.065 538.363 522.197 534.659L520.463 533.661C518.115 537.743 516.97 542.753 516.97 548.64H518.97ZM522.195 534.662C524.407 530.855 527.359 527.801 531.06 525.488L530 523.792C526.021 526.279 522.84 529.571 520.465 533.658L522.195 534.662ZM531.06 525.488C534.799 523.151 538.961 521.459 543.552 520.415L543.108 518.465C538.313 519.555 533.941 521.329 530 523.792L531.06 525.488ZM543.549 520.416C548.223 519.365 553.002 518.84 557.89 518.84V516.84C552.858 516.84 547.931 517.381 543.111 518.464L543.549 520.416ZM557.89 518.84C565.086 518.84 570.98 519.555 575.6 520.957L576.18 519.043C571.307 517.565 565.201 516.84 557.89 516.84V518.84ZM575.61 520.96C580.335 522.34 583.627 523.693 585.575 524.992L586.685 523.328C584.473 521.854 580.939 520.433 576.17 519.04L575.61 520.96ZM585.16 523.919L581.48 538.719L583.42 539.201L587.1 524.401L585.16 523.919ZM582.981 538.113C580.19 536.361 576.923 534.812 573.191 533.46L572.509 535.34C576.137 536.654 579.27 538.145 581.919 539.807L582.981 538.113ZM573.207 533.466C569.417 532.017 564.291 531.32 557.89 531.32V533.32C564.182 533.32 569.03 534.01 572.493 535.334L573.207 533.466ZM557.89 531.32C553.91 531.32 550.21 531.838 546.797 532.884L547.383 534.796C550.584 533.815 554.084 533.32 557.89 533.32V531.32ZM546.797 532.884C543.36 533.937 540.538 535.561 538.374 537.782L539.806 539.178C541.695 537.239 544.206 535.77 547.383 534.796L546.797 532.884ZM538.374 537.782C536.143 540.072 535.05 543 535.05 546.48H537.05C537.05 543.453 537.984 541.048 539.806 539.178L538.374 537.782ZM535.05 546.48C535.05 550.294 535.824 553.575 537.431 556.272L539.149 555.248C537.769 552.932 537.05 550.026 537.05 546.48H535.05ZM537.444 556.293C539.094 558.91 541.7 561.326 545.191 563.562L546.269 561.878C542.934 559.741 540.58 557.517 539.136 555.227L537.444 556.293ZM545.2 563.568C548.645 565.721 553.15 568.241 558.709 571.127L559.631 569.352C554.096 566.479 549.642 563.986 546.26 561.872L545.2 563.568ZM558.709 571.127C562.69 573.197 566.618 575.401 570.494 577.736L571.526 576.024C567.615 573.666 563.65 571.443 559.631 569.353L558.709 571.127ZM570.502 577.742C574.342 580.003 577.808 582.525 580.902 585.304L582.238 583.816C579.039 580.942 575.464 578.343 571.518 576.018L570.502 577.742ZM580.908 585.309C584.017 588.055 586.471 591.209 588.278 594.772L590.062 593.868C588.136 590.071 585.523 586.718 582.232 583.811L580.908 585.309ZM588.286 594.788C590.12 598.251 591.05 602.246 591.05 606.8H593.05C593.05 601.967 592.06 597.642 590.054 593.852L588.286 594.788ZM591.05 606.8C591.05 613.894 589.383 619.734 586.112 624.385L587.748 625.535C591.304 620.479 593.05 614.213 593.05 606.8H591.05ZM586.111 624.387C582.874 629.01 578.346 632.495 572.48 634.831L573.22 636.689C579.408 634.225 584.266 630.51 587.749 625.533L586.111 624.387ZM572.484 634.829C566.65 637.121 559.872 638.28 552.13 638.28V640.28C560.068 640.28 567.103 639.092 573.216 636.691L572.484 634.829ZM635.399 638H634.399V639H635.399V638ZM635.399 507.92V506.92H634.399V507.92H635.399ZM653.799 507.92H654.799V506.92H653.799V507.92ZM653.799 544.56L654.797 544.62L654.799 544.59V544.56H653.799ZM652.839 560.64L651.918 561.03L653.837 560.7L652.839 560.64ZM651.959 558.56L651.334 557.779L650.743 558.252L651.038 558.95L651.959 558.56ZM660.119 553.52L660.566 554.414L660.566 554.414L660.119 553.52ZM670.839 549.44L671.106 550.404L671.119 550.4L670.839 549.44ZM682.279 547.6L682.251 546.6L682.251 546.6L682.279 547.6ZM703.399 555.6L702.611 556.216L702.614 556.22L703.399 555.6ZM710.039 638V639H711.039V638H710.039ZM691.639 638H690.639V639H691.639V638ZM688.199 567.52L687.375 568.087L687.381 568.096L688.199 567.52ZM675.079 563.12L675.098 564.12L675.113 564.12L675.128 564.119L675.079 563.12ZM664.919 565.12L664.61 564.169L664.61 564.169L664.919 565.12ZM653.799 570.96L653.197 570.161L652.799 570.462V570.96H653.799ZM653.799 638V639H654.799V638H653.799ZM636.399 638V507.92H634.399V638H636.399ZM635.399 508.92H653.799V506.92H635.399V508.92ZM652.799 507.92V544.56H654.799V507.92H652.799ZM652.801 544.5L651.841 560.58L653.837 560.7L654.797 544.62L652.801 544.5ZM653.76 560.25L652.88 558.17L651.038 558.95L651.918 561.03L653.76 560.25ZM652.583 559.341C654.646 557.691 657.302 556.047 660.566 554.414L659.672 552.626C656.322 554.3 653.538 556.016 651.334 557.779L652.583 559.341ZM660.566 554.414C663.811 552.792 667.324 551.454 671.106 550.404L670.571 548.476C666.674 549.559 663.04 550.941 659.672 552.626L660.566 554.414ZM671.119 550.4C674.881 549.303 678.61 548.704 682.307 548.6L682.251 546.6C678.374 546.71 674.476 547.337 670.559 548.48L671.119 550.4ZM682.306 548.6C691.821 548.338 698.499 550.95 702.611 556.215L704.187 554.984C699.552 549.05 692.15 546.328 682.251 546.6L682.306 548.6ZM702.614 556.22C706.826 561.548 709.039 570.569 709.039 583.52H711.039C711.039 570.445 708.825 560.852 704.183 554.98L702.614 556.22ZM709.039 583.52V638H711.039V583.52H709.039ZM710.039 637H691.639V639H710.039V637ZM692.639 638V583.36H690.639V638H692.639ZM692.639 583.36C692.639 575.996 691.492 570.456 689.016 566.944L687.381 568.096C689.492 571.09 690.639 576.11 690.639 583.36H692.639ZM689.022 566.953C686.483 563.265 681.651 561.796 675.03 562.121L675.128 564.119C681.52 563.804 685.434 565.269 687.375 568.087L689.022 566.953ZM675.06 562.12C672.101 562.176 668.611 562.871 664.61 564.169L665.227 566.071C669.12 564.809 672.404 564.171 675.098 564.12L675.06 562.12ZM664.61 564.169C660.553 565.485 656.748 567.484 653.197 570.161L654.401 571.759C657.783 569.209 661.391 567.315 665.227 566.071L664.61 564.169ZM652.799 570.96V638H654.799V570.96H652.799ZM653.799 637H635.399V639H653.799V637ZM765.403 636.16L764.942 637.047L764.948 637.051L764.955 637.054L765.403 636.16ZM755.643 627.2L754.786 627.716L754.79 627.723L754.795 627.73L755.643 627.2ZM756.683 598.96L755.891 598.348L755.89 598.35L756.683 598.96ZM769.083 589.6L768.706 588.674L768.696 588.678L768.685 588.682L769.083 589.6ZM780.203 586.32L780.399 587.301L780.411 587.298L780.203 586.32ZM792.203 584.56L792.282 585.557L792.295 585.556L792.203 584.56ZM803.323 584L804.108 583.382L803.808 583H803.323V584ZM807.163 588.88L808.023 589.39L808.372 588.8L807.948 588.262L807.163 588.88ZM803.323 595.36V596.36H803.892L804.183 595.87L803.323 595.36ZM795.803 595.84L795.895 596.836L795.903 596.835L795.911 596.834L795.803 595.84ZM787.243 597.2L787.446 598.179L787.455 598.177L787.463 598.175L787.243 597.2ZM780.043 599.52L780.454 600.432L780.467 600.426L780.48 600.419L780.043 599.52ZM773.243 604.24L772.515 603.553L772.515 603.553L773.243 604.24ZM774.203 622.4L773.52 623.131L773.528 623.138L774.203 622.4ZM792.923 624.72L793.203 625.68L793.203 625.68L792.923 624.72ZM799.563 622.16L799.115 621.266L799.105 621.271L799.563 622.16ZM803.323 619.68L804.052 618.996L803.284 618.178L802.559 619.034L803.323 619.68ZM807.003 623.6L807.936 623.958L808.161 623.373L807.732 622.916L807.003 623.6ZM804.363 630.48L805.035 631.22L805.211 631.06L805.296 630.838L804.363 630.48ZM794.203 636.48L793.814 635.559L794.203 636.48ZM821.803 638V639H822.803V638H821.803ZM804.363 638H803.363V639H804.363V638ZM804.363 624.72H805.363V623.72H804.363V624.72ZM803.323 624.72H802.323V625.72H803.323V624.72ZM799.163 565.28L798.631 566.127L798.641 566.133L798.65 566.139L799.163 565.28ZM777.083 563.76L777.259 564.744L777.266 564.743L777.273 564.742L777.083 563.76ZM767.243 566.24L767.549 567.192L767.556 567.19L767.564 567.187L767.243 566.24ZM760.363 569.2L759.412 569.509L759.81 570.734L760.898 570.045L760.363 569.2ZM756.043 555.92L755.523 555.066L754.847 555.477L755.092 556.229L756.043 555.92ZM763.083 552.8L762.728 551.865L762.724 551.867L763.083 552.8ZM775.323 549.2L775.547 550.175L775.555 550.173L775.323 549.2ZM806.523 549.84L806.219 550.793L806.222 550.794L806.523 549.84ZM817.803 558.48L816.953 559.007L816.957 559.013L816.961 559.02L817.803 558.48ZM779.643 638.28C774.442 638.28 769.852 637.267 765.85 635.266L764.955 637.054C769.273 639.213 774.177 640.28 779.643 640.28V638.28ZM765.864 635.273C761.912 633.22 758.794 630.355 756.491 626.67L754.795 627.73C757.291 631.725 760.68 634.834 764.942 637.047L765.864 635.273ZM756.499 626.684C754.261 622.97 753.123 618.568 753.123 613.44H751.123C751.123 618.872 752.331 623.643 754.786 627.716L756.499 626.684ZM753.123 613.44C753.123 607.92 754.589 603.317 757.475 599.57L755.89 598.35C752.696 602.496 751.123 607.546 751.123 613.44H753.123ZM757.474 599.572C760.452 595.72 764.443 592.698 769.48 590.518L768.685 588.682C763.375 590.982 759.1 594.2 755.891 598.348L757.474 599.572ZM769.459 590.526C772.808 589.166 776.454 588.09 780.399 587.301L780.006 585.339C775.951 586.15 772.184 587.261 768.706 588.674L769.459 590.526ZM780.411 587.298C784.369 586.454 788.326 585.873 792.282 585.557L792.123 583.563C788.079 583.887 784.036 584.48 779.994 585.342L780.411 587.298ZM792.295 585.556C796.27 585.185 799.945 585 803.323 585V583C799.873 583 796.135 583.189 792.11 583.564L792.295 585.556ZM802.537 584.618L806.377 589.498L807.948 588.262L804.108 583.382L802.537 584.618ZM806.302 588.37L802.462 594.85L804.183 595.87L808.023 589.39L806.302 588.37ZM803.323 594.36C801.195 594.36 798.65 594.523 795.694 594.846L795.911 596.834C798.822 596.517 801.29 596.36 803.323 596.36V594.36ZM795.71 594.844C792.787 595.115 789.891 595.575 787.022 596.225L787.463 598.175C790.248 597.545 793.058 597.098 795.895 596.836L795.71 594.844ZM787.039 596.221C784.155 596.819 781.672 597.615 779.605 598.621L780.48 600.419C782.36 599.505 784.676 598.754 787.446 598.179L787.039 596.221ZM779.631 598.608C776.808 599.882 774.429 601.527 772.515 603.553L773.97 604.927C775.682 603.113 777.837 601.612 780.454 600.432L779.631 598.608ZM772.515 603.553C770.48 605.708 769.523 608.649 769.523 612.24H771.523C771.523 609.005 772.378 606.612 773.97 604.927L772.515 603.553ZM769.523 612.24C769.523 616.9 770.803 620.591 773.52 623.131L774.885 621.669C772.695 619.622 771.523 616.54 771.523 612.24H769.523ZM773.528 623.138C776.286 625.662 780.276 626.84 785.323 626.84V624.84C780.556 624.84 777.132 623.725 774.878 621.662L773.528 623.138ZM785.323 626.84C787.93 626.84 790.557 626.452 793.203 625.68L792.643 623.76C790.168 624.482 787.729 624.84 785.323 624.84V626.84ZM793.203 625.68C795.808 624.92 798.084 624.045 800.02 623.049L799.105 621.271C797.308 622.195 795.157 623.027 792.643 623.76L793.203 625.68ZM800.01 623.054C801.929 622.095 803.354 621.191 804.086 620.326L802.559 619.034C802.118 619.555 801.036 620.305 799.115 621.266L800.01 623.054ZM802.593 620.364L806.273 624.284L807.732 622.916L804.052 618.996L802.593 620.364ZM806.069 623.242L803.429 630.122L805.296 630.838L807.936 623.958L806.069 623.242ZM803.69 629.74C801.458 631.769 798.184 633.716 793.814 635.559L794.591 637.401C799.074 635.511 802.573 633.458 805.035 631.22L803.69 629.74ZM793.814 635.559C789.522 637.368 784.802 638.28 779.643 638.28V640.28C785.043 640.28 790.03 639.325 794.591 637.401L793.814 635.559ZM821.803 637H804.363V639H821.803V637ZM805.363 638V624.72H803.363V638H805.363ZM804.363 623.72H803.323V625.72H804.363V623.72ZM804.323 624.72V575.6H802.323V624.72H804.323ZM804.323 575.6C804.323 570.249 802.905 566.347 799.675 564.421L798.65 566.139C800.967 567.52 802.323 570.498 802.323 575.6H804.323ZM799.694 564.433C796.748 562.584 792.638 561.72 787.483 561.72V563.72C792.46 563.72 796.137 564.562 798.631 566.127L799.694 564.433ZM787.483 561.72C784.054 561.72 780.523 562.074 776.892 562.778L777.273 564.742C780.789 564.06 784.191 563.72 787.483 563.72V561.72ZM776.906 562.776C773.291 563.423 769.962 564.261 766.921 565.293L767.564 567.187C770.497 566.192 773.727 565.377 777.259 564.744L776.906 562.776ZM766.937 565.288C763.915 566.259 761.53 567.277 759.827 568.355L760.898 570.045C762.395 569.097 764.597 568.141 767.549 567.192L766.937 565.288ZM761.313 568.891L756.993 555.611L755.092 556.229L759.412 569.509L761.313 568.891ZM756.562 556.774C757.702 556.08 759.97 555.069 763.441 553.733L762.724 551.867C759.262 553.198 756.836 554.266 755.523 555.066L756.562 556.774ZM763.437 553.735C766.905 552.421 770.94 551.234 775.547 550.175L775.098 548.225C770.425 549.3 766.3 550.512 762.728 551.865L763.437 553.735ZM775.555 550.173C780.176 549.07 784.738 548.52 789.243 548.52V546.52C784.574 546.52 779.856 547.09 775.09 548.227L775.555 550.173ZM789.243 548.52C795.836 548.52 801.489 549.285 806.219 550.793L806.826 548.887C801.85 547.301 795.982 546.52 789.243 546.52V548.52ZM806.222 550.794C810.91 552.271 814.471 555.005 816.953 559.007L818.652 557.953C815.908 553.528 811.949 550.502 806.823 548.886L806.222 550.794ZM816.961 559.02C819.479 562.948 820.803 568.779 820.803 576.64H822.803C822.803 568.608 821.459 562.332 818.644 557.94L816.961 559.02ZM820.803 576.64V638H822.803V576.64H820.803ZM886.938 572.56L885.942 572.652L886.137 574.774L887.645 573.267L886.938 572.56ZM885.818 560.4L884.917 559.964L884.796 560.215L884.822 560.492L885.818 560.4ZM890.858 554.96L891.468 555.752L891.478 555.744L890.858 554.96ZM899.898 549.76L899.519 548.834L899.514 548.836L899.898 549.76ZM915.818 547.84L915.707 548.834L915.711 548.834L915.818 547.84ZM919.098 548.72H920.098V548.161L919.622 547.868L919.098 548.72ZM919.098 566L918.627 566.882L920.098 567.667V566H919.098ZM915.418 564.64L915.13 565.598L915.139 565.6L915.418 564.64ZM898.618 565.36L898.945 566.305L898.956 566.301L898.618 565.36ZM891.738 568.72L891.178 567.891L891.178 567.891L891.738 568.72ZM869.498 638H868.498V639H869.498V638ZM869.498 549.04V548.04H868.498V549.04H869.498ZM885.178 549.04L886.171 548.928L886.071 548.04H885.178V549.04ZM886.458 560.4L885.464 560.512L885.469 560.561L885.48 560.61L886.458 560.4ZM887.898 567.12H888.898V567.014L888.875 566.91L887.898 567.12ZM887.898 638V639H888.898V638H887.898ZM887.933 572.468L886.813 560.308L884.822 560.492L885.942 572.652L887.933 572.468ZM886.718 560.836C887.417 559.391 888.951 557.692 891.468 555.752L890.247 554.168C887.644 556.174 885.818 558.102 884.917 559.964L886.718 560.836ZM891.478 555.744C893.956 553.782 896.887 552.093 900.281 550.683L899.514 548.836C895.975 550.307 892.879 552.084 890.237 554.176L891.478 555.744ZM900.276 550.686C903.682 549.292 907.127 548.6 910.618 548.6V546.6C906.855 546.6 903.153 547.348 899.519 548.834L900.276 550.686ZM910.618 548.6C912.621 548.6 914.315 548.679 915.707 548.834L915.928 546.846C914.44 546.681 912.668 546.6 910.618 546.6V548.6ZM915.711 548.834C917.161 548.99 918.073 549.264 918.573 549.572L919.622 547.868C918.735 547.323 917.461 547.01 915.924 546.846L915.711 548.834ZM918.098 548.72V566H920.098V548.72H918.098ZM919.568 565.118C918.675 564.641 917.368 564.165 915.696 563.68L915.139 565.6C916.774 566.075 917.92 566.505 918.627 566.882L919.568 565.118ZM915.705 563.682C913.955 563.157 911.215 562.92 907.578 562.92V564.92C911.193 564.92 913.68 565.163 915.13 565.598L915.705 563.682ZM907.578 562.92C904.174 562.92 901.071 563.414 898.279 564.419L898.956 566.301C901.498 565.386 904.367 564.92 907.578 564.92V562.92ZM898.29 564.415C895.607 565.346 893.233 566.502 891.178 567.891L892.297 569.549C894.188 568.271 896.401 567.187 898.945 566.305L898.29 564.415ZM891.178 567.891C889.17 569.248 887.515 570.568 886.23 571.853L887.645 573.267C888.813 572.099 890.359 570.858 892.297 569.549L891.178 567.891ZM870.498 638V549.04H868.498V638H870.498ZM869.498 550.04H885.178V548.04H869.498V550.04ZM884.184 549.152L885.464 560.512L887.451 560.288L886.171 548.928L884.184 549.152ZM885.48 560.61L886.92 567.33L888.875 566.91L887.435 560.19L885.48 560.61ZM886.898 567.12V638H888.898V567.12H886.898ZM887.898 637H869.498V639H887.898V637ZM1032.99 548.88L1033.71 549.572L1035.33 547.88H1032.99V548.88ZM974.749 609.68L973.811 609.333L975.471 610.372L974.749 609.68ZM976.349 605.36L977.349 605.339L975.411 605.013L976.349 605.36ZM976.669 620.72H977.669V620.71L977.669 620.699L976.669 620.72ZM976.669 638V639H977.669V638H976.669ZM958.749 638H957.749V639H958.749V638ZM958.749 508.24V507.24H957.749V508.24H958.749ZM976.669 508.24H977.669V507.24H976.669V508.24ZM976.669 576.08L977.668 576.113L977.669 576.096V576.08H976.669ZM976.029 595.6L975.453 596.418L976.968 597.483L977.028 595.633L976.029 595.6ZM971.709 592.56L970.969 591.888L970.207 592.726L971.133 593.378L971.709 592.56ZM1011.39 548.88V547.88H1010.95L1010.65 548.208L1011.39 548.88ZM985.949 594.16L985.256 593.439L984.646 594.025L985.123 594.724L985.949 594.16ZM998.429 582.16L999.253 581.593L998.585 580.622L997.736 581.439L998.429 582.16ZM1036.83 638V639H1038.73L1037.65 637.433L1036.83 638ZM1015.87 638L1015.04 638.564L1015.34 639H1015.87V638ZM1032.27 548.188L974.027 608.988L975.471 610.372L1033.71 549.572L1032.27 548.188ZM975.686 610.027L977.286 605.707L975.411 605.013L973.811 609.333L975.686 610.027ZM975.349 605.381L975.669 620.741L977.669 620.699L977.349 605.339L975.349 605.381ZM975.669 620.72V638H977.669V620.72H975.669ZM976.669 637H958.749V639H976.669V637ZM959.749 638V585.04H957.749V638H959.749ZM959.749 585.04V508.24H957.749V585.04H959.749ZM958.749 509.24H976.669V507.24H958.749V509.24ZM975.669 508.24V576.08H977.669V508.24H975.669ZM975.669 576.047L975.029 595.567L977.028 595.633L977.668 576.113L975.669 576.047ZM976.604 594.782L972.284 591.742L971.133 593.378L975.453 596.418L976.604 594.782ZM972.449 593.232L1012.13 549.552L1010.65 548.208L970.969 591.888L972.449 593.232ZM1011.39 549.88H1032.99V547.88H1011.39V549.88ZM986.642 594.881L999.122 582.881L997.736 581.439L985.256 593.439L986.642 594.881ZM997.605 582.727L1036 638.567L1037.65 637.433L999.253 581.593L997.605 582.727ZM1036.83 637H1015.87V639H1036.83V637ZM1016.69 637.436L986.775 593.596L985.123 594.724L1015.04 638.564L1016.69 637.436Z" fill="black"/>
<g filter="url(#filter0_d_0_1)">
<path d="M453.965 894.693L534 664.5L670 654.592L453.965 894.693Z" fill="#C69749"/>
<path d="M655.977 194L556 499.5L410 506.592L655.977 194Z" fill="#C69749"/>
</g>
<defs>
<filter id="filter0_d_0_1" x="406" y="194" width="268" height="744" filterUnits="userSpaceOnUse" color-interpolation-filters="sRGB">
<feFlood flood-opacity="0" result="BackgroundImageFix"/>
<feColorMatrix in="SourceAlpha" type="matrix" values="0 0 0 0 0 0 0 0 0 0 0 0 0 0 0 0 0 0 127 0" result="hardAlpha"/>
<feOffset dy="4"/>
<feGaussianBlur stdDeviation="2"/>
<feComposite in2="hardAlpha" operator="out"/>
<feColorMatrix type="matrix" values="0 0 0 0 0 0 0 0 0 0 0 0 0 0 0 0 0 0 0.25 0"/>
<feBlend mode="normal" in2="BackgroundImageFix" result="effect1_dropShadow_0_1"/>
<feBlend mode="normal" in="SourceGraphic" in2="effect1_dropShadow_0_1" result="shape"/>
</filter>
</defs>
</svg>
